<?xml version="1.0" standalone="no"?>
<!DOCTYPE svg PUBLIC "-//W3C//DTD SVG 20010904//EN"
 "http://www.w3.org/TR/2001/REC-SVG-20010904/DTD/svg10.dtd">
<svg version="1.0" xmlns="http://www.w3.org/2000/svg"
 width="2074.000000pt" height="2074.000000pt" viewBox="0 0 2074.000000 2074.000000"
 preserveAspectRatio="xMidYMid meet">
<metadata>
Created by potrace 1.14, written by Peter Selinger 2001-2017
</metadata>
<g transform="translate(0.000000,2074.000000) scale(0.100000,-0.100000)"
fill="#000000" stroke="none">
<path d="M9768 17395 c-1 -1 -66 -5 -143 -9 -77 -3 -151 -8 -165 -10 -24 -4
-119 -13 -230 -22 -30 -2 -80 -6 -110 -9 -30 -3 -80 -8 -110 -11 -30 -2 -73
-7 -95 -9 -42 -4 -146 -13 -255 -21 -275 -19 -965 -25 -1335 -11 -337 13 -399
16 -462 22 -71 6 -65 13 -65 -83 0 -29 1 -54 3 -56 2 -1 48 -12 102 -25 324
-76 559 -228 690 -446 37 -63 81 -181 91 -250 14 -88 16 -102 21 -146 15 -127
17 -467 18 -2199 0 -1686 -4 -2098 -18 -2195 -3 -16 -7 -48 -10 -70 -10 -75
-26 -160 -36 -191 -5 -17 -11 -40 -13 -50 -2 -10 -12 -39 -22 -64 -104 -260
-384 -456 -761 -531 -68 -14 -65 -9 -65 -94 0 -25 1 -49 1 -55 1 -7 510 -10
1506 -10 l1505 0 0 74 0 74 -42 7 c-224 35 -445 122 -593 232 -84 63 -118 97
-176 178 -63 86 -121 220 -134 306 -4 24 -8 46 -10 49 -2 3 -6 37 -10 75 -4
39 -9 81 -12 95 -3 14 -7 539 -8 1168 l-2 1143 491 -2 c270 -1 523 -5 561 -10
39 -5 90 -11 115 -14 218 -28 394 -132 528 -313 92 -124 241 -393 360 -652 16
-36 67 -141 112 -235 45 -93 83 -174 84 -180 5 -25 98 -197 199 -370 138 -236
357 -548 443 -630 12 -11 48 -51 80 -90 85 -101 344 -359 449 -447 416 -348
865 -552 1355 -614 25 -3 56 -7 69 -9 12 -2 60 -7 105 -10 44 -4 92 -9 106
-11 14 -2 93 -6 177 -9 l151 -6 1 65 0 65 -127 61 c-339 163 -571 374 -909
830 -135 183 -553 806 -553 825 0 2 -13 23 -29 47 -61 93 -185 293 -181 293 8
0 -223 335 -339 490 -121 163 -351 432 -351 411 0 -4 -21 15 -47 42 -107 109
-274 238 -441 341 -85 53 -381 201 -401 201 -25 0 -9 20 17 21 268 6 704 111
960 231 56 26 199 111 237 140 270 211 425 472 469 793 3 22 8 58 11 80 5 32
6 190 3 285 0 8 -6 58 -14 110 -26 179 -75 327 -162 485 -93 170 -274 369
-443 487 -92 65 -231 148 -253 152 -6 2 -40 16 -76 33 -101 47 -361 137 -460
159 -11 2 -30 6 -42 9 -42 9 -133 29 -138 30 -3 1 -30 5 -60 9 -30 5 -64 10
-75 12 -23 5 -63 10 -155 20 -36 3 -85 9 -110 11 -51 6 -766 13 -772 8z m292
-199 c14 -2 43 -7 65 -10 372 -57 707 -248 921 -526 56 -73 134 -194 134 -209
0 -6 9 -25 19 -43 30 -51 80 -203 101 -303 26 -122 33 -191 34 -315 4 -321
-68 -589 -218 -823 -49 -76 -58 -88 -136 -167 -169 -174 -389 -276 -680 -316
-25 -3 -47 -7 -50 -9 -3 -2 -43 -6 -90 -10 -47 -4 -94 -9 -105 -12 -11 -3
-293 -7 -626 -10 l-607 -5 3 953 c1 525 5 963 8 974 2 11 8 43 11 70 31 239
102 403 228 527 103 101 245 173 423 215 84 19 222 29 370 27 94 -2 181 -6
195 -8z m765 -66 c286 -67 573 -214 759 -387 31 -29 56 -49 56 -45 0 13 100
-103 159 -183 89 -122 165 -274 193 -385 5 -19 11 -44 14 -55 71 -281 34 -595
-99 -845 -76 -144 -152 -236 -293 -360 -192 -168 -486 -320 -784 -404 -52 -15
-102 -30 -110 -32 -25 -9 -6 4 56 37 323 171 529 392 640 687 29 76 63 201 70
256 3 23 7 47 9 54 18 53 26 395 13 517 -22 195 -65 343 -153 520 -113 227
-311 440 -552 591 -92 58 -106 68 -83 60 8 -2 56 -14 105 -26z m-1915 10 c-1
-3 -75 -61 -166 -130 -91 -68 -190 -146 -220 -173 -64 -58 -101 -129 -111
-212 -9 -72 -10 -4935 -2 -5051 12 -150 47 -196 288 -378 l134 -101 -341 -3
c-188 -1 -495 -1 -681 0 l-340 3 142 105 c241 179 266 210 283 365 8 69 8
4988 0 5050 -18 146 -63 200 -310 375 -96 69 -176 127 -176 130 0 3 28 3 63
-1 67 -6 970 -3 1077 4 36 3 114 8 175 11 60 4 110 8 111 9 5 5 74 2 74 -3z
m1703 -2976 c173 -86 367 -215 486 -323 191 -172 342 -346 526 -606 43 -60 84
-114 91 -120 13 -11 179 -265 179 -275 0 -6 87 -150 116 -192 11 -15 19 -29
19 -32 0 -4 210 -348 255 -416 159 -245 249 -374 326 -470 51 -63 95 -117 98
-120 3 -3 37 -41 76 -85 103 -117 267 -274 390 -371 28 -21 52 -41 55 -44 24
-24 276 -183 348 -219 23 -12 42 -26 42 -32 0 -6 -5 -7 -11 -4 -5 4 -25 9 -42
12 -18 3 -86 20 -152 39 -360 103 -692 270 -984 497 -95 74 -351 318 -442 422
-46 54 -184 226 -238 299 -24 32 -51 66 -61 76 -28 28 -183 269 -279 433 -49
83 -145 265 -213 402 -69 138 -152 302 -185 365 -33 63 -88 167 -121 231 -62
119 -142 258 -162 281 -5 7 -34 45 -62 83 -28 39 -54 72 -57 75 -3 3 -37 40
-75 83 -77 87 -76 87 77 11z"/>
<path d="M5832 7698 l3 -4002 95 -28 c52 -15 104 -30 115 -33 16 -3 103 -29
310 -89 6 -2 17 -5 25 -8 8 -3 119 -35 245 -71 127 -36 381 -108 565 -162 184
-53 342 -98 350 -100 8 -2 85 -25 170 -50 85 -26 171 -50 190 -55 33 -7 212
-59 275 -79 17 -6 111 -33 210 -61 99 -28 188 -53 198 -56 15 -5 17 5 17 114
l0 119 -77 59 c-106 81 -94 71 -228 180 -316 259 -471 399 -765 694 -467 468
-814 916 -1017 1315 -130 254 -237 562 -278 800 -3 17 -8 37 -10 45 -2 8 -7
38 -10 65 -4 28 -10 77 -15 110 -14 103 -15 147 -15 660 0 589 6 694 55 916
21 95 22 97 57 189 66 171 147 282 278 381 110 82 320 165 495 194 115 19 151
24 205 31 33 4 74 8 90 9 17 1 84 6 150 10 66 5 827 9 1690 9 l1570 1 0 -580
c0 -511 -6 -772 -19 -855 -3 -14 -7 -52 -11 -85 -23 -223 -100 -517 -172 -660
-63 -124 -181 -280 -269 -357 -22 -18 -48 -41 -59 -51 -35 -33 -178 -123 -252
-160 -209 -106 -528 -208 -878 -282 -18 -4 -20 -12 -19 -100 1 -53 4 -98 7
-102 4 -4 3131 -8 3380 -4 l38 1 -3 102 -3 101 -130 33 c-267 67 -506 167
-686 286 -316 211 -485 490 -584 966 -9 42 -18 90 -20 105 -6 43 -16 110 -20
137 -2 14 -7 59 -10 100 -4 41 -9 91 -11 110 -3 19 -8 319 -11 665 l-5 630
1228 -1 c1304 -1 1328 -2 1534 -39 122 -22 131 -25 221 -55 288 -96 464 -238
596 -480 81 -149 149 -394 177 -635 20 -170 28 -855 12 -1065 -12 -166 -21
-253 -31 -290 -2 -8 -6 -37 -10 -65 -10 -85 -65 -313 -102 -424 -278 -839
-894 -1389 -1962 -1752 l-150 -51 1 -109 1 -110 33 5 c18 3 64 8 101 11 37 4
79 8 93 10 14 2 59 7 100 10 41 4 89 9 105 11 17 2 59 6 95 10 113 10 177 17
280 29 19 2 64 7 100 10 36 3 81 8 100 10 19 2 64 7 100 10 36 4 81 8 100 11
19 2 62 6 95 9 33 3 76 7 95 10 19 2 64 7 100 10 36 3 81 8 100 10 19 2 64 7
100 10 36 4 76 8 90 10 14 2 59 7 100 10 41 3 86 8 100 10 14 2 59 6 100 10
41 4 86 8 100 10 14 2 57 6 95 10 104 9 156 15 198 21 l37 6 0 3854 0 3855
-107 -3 -107 -3 -22 -115 c-79 -397 -275 -743 -536 -943 -145 -111 -337 -190
-518 -213 -25 -3 -52 -7 -60 -10 -8 -2 -49 -6 -90 -9 -41 -4 -86 -8 -100 -10
-81 -14 -687 -17 -3070 -18 -2335 0 -2847 3 -3015 18 -52 5 -179 18 -185 20
-3 1 -32 5 -65 10 -33 5 -62 10 -65 10 -3 1 -23 5 -45 9 -120 24 -269 72 -353
115 -193 98 -390 313 -512 561 -53 107 -121 314 -150 450 -12 58 -24 111 -26
118 -2 8 -33 12 -109 12 l-105 0 2 -4002z m8976 1511 l-3 -551 -95 132 c-52
72 -100 137 -105 143 -6 7 -46 62 -90 122 -145 199 -241 285 -355 315 -74 20
-79 20 -240 26 -211 8 -6731 8 -6945 0 -93 -3 -194 -12 -223 -20 -124 -34
-203 -108 -419 -396 l-148 -198 -3 489 c-1 269 -1 710 0 979 l3 491 150 -203
c82 -112 182 -235 221 -275 104 -106 166 -128 399 -139 166 -8 6793 -8 6980 0
155 7 179 10 247 32 121 39 186 111 544 597 l79 108 3 -551 c1 -302 1 -798 0
-1101z m-3889 -2476 c14 -39 88 -214 123 -293 33 -72 98 -167 192 -277 48 -57
85 -103 84 -104 -4 -1 -796 -1 -825 0 -20 1 -12 14 58 98 135 160 243 339 313
515 14 36 26 74 26 82 0 28 16 17 29 -21z m3896 -1752 c0 -258 -4 -473 -8
-477 -4 -4 -18 -9 -30 -11 -12 -2 -87 -14 -167 -27 -80 -14 -163 -28 -185 -31
-22 -4 -49 -8 -60 -10 -11 -2 -65 -10 -120 -19 -55 -9 -111 -18 -125 -21 -14
-3 -45 -8 -70 -11 -25 -3 -63 -9 -84 -14 -46 -10 -51 -15 94 100 146 117 315
276 398 375 99 119 249 375 331 569 11 25 22 46 23 46 2 0 3 -211 3 -469z
m-8487 179 c112 -197 308 -500 388 -600 7 -8 54 -67 105 -130 51 -63 206 -229
346 -368 139 -140 244 -250 232 -247 -36 12 -1083 327 -1094 329 -5 2 -36 10
-67 20 l-58 17 0 627 0 626 41 -79 c23 -44 71 -132 107 -195z"/>
</g>
</svg>
